<svg width="130" height="130" viewBox="0 0 130 130" fill="none" xmlns="http://www.w3.org/2000/svg">
<circle cx="65" cy="65" r="58.5" fill="url(#paint0_linear_153_257)" stroke="url(#paint1_linear_153_257)" stroke-width="13"/>
<circle cx="65" cy="65" r="58.5" fill="url(#paint2_linear_153_257)" stroke="url(#paint3_linear_153_257)" stroke-width="1.18182"/>
<path d="M66.4483 33.0682L82.3971 60.6932C82.5441 60.9477 82.6214 61.2364 82.6214 61.5303C82.6214 61.8242 82.5441 62.1129 82.3971 62.3674C82.2502 62.622 82.0388 62.8333 81.7843 62.9803C81.5298 63.1272 81.2411 63.2046 80.9472 63.2046H49.0496C48.7557 63.2046 48.467 63.1272 48.2125 62.9803C47.9579 62.8333 47.7466 62.622 47.5997 62.3674C47.4527 62.1129 47.3754 61.8242 47.3754 61.5303C47.3754 61.2364 47.4527 60.9477 47.5997 60.6932L63.5485 33.0682C63.6955 32.8137 63.9068 32.6024 64.1613 32.4555C64.4158 32.3085 64.7045 32.2312 64.9984 32.2312C65.2923 32.2312 65.581 32.3085 65.8355 32.4555C66.09 32.6024 66.3013 32.8137 66.4483 33.0682ZM63.3242 54.8334V58.1819H66.6726V54.8334H63.3242ZM63.3242 43.1137V51.4849H66.6726V43.1137H63.3242Z" fill="white"/>
<path d="M39.0851 95.1364L44.0204 81.0964H48.4025L53.3165 95.1364H49.5513L46.8071 86.1167L46.1902 83.9044H46.1476L45.5733 86.0955L42.7653 95.1364H39.0851ZM42.2973 91.9667V89.4778H50.1044V91.9667H42.2973ZM58.2679 79.9902V91.52C58.2679 91.988 58.3459 92.3213 58.5019 92.5198C58.6579 92.7184 58.9203 92.8177 59.289 92.8177C59.5018 92.8177 59.679 92.8035 59.8208 92.7751C59.9627 92.7467 60.1328 92.7042 60.3314 92.6475L60.0974 94.8173C59.8421 94.9733 59.5088 95.1009 59.0976 95.2002C58.6863 95.2995 58.2821 95.3491 57.885 95.3491C56.7505 95.3491 55.9279 95.0867 55.4174 94.562C54.9068 94.0373 54.6516 93.1793 54.6516 91.988V79.9902H58.2679ZM66.844 95.3491C65.6669 95.3491 64.6458 95.1293 63.7807 94.6897C62.9298 94.25 62.2704 93.6189 61.8024 92.7964C61.3344 91.9738 61.1004 90.9811 61.1004 89.8182C61.1004 88.6553 61.3344 87.6626 61.8024 86.84C62.2704 86.0175 62.9227 85.3864 63.7595 84.9467C64.6104 84.5071 65.5818 84.2873 66.6738 84.2873C67.7942 84.2873 68.7444 84.5071 69.5244 84.9467C70.3186 85.3722 70.9213 85.9678 71.3326 86.7337C71.7438 87.4853 71.9495 88.3504 71.9495 89.3289C71.9495 89.5842 71.9424 89.8395 71.9282 90.0947C71.914 90.35 71.8927 90.5627 71.8644 90.7329H63.4404V88.7971H70.2689L68.5458 89.4566C68.5458 88.6057 68.3898 87.9533 68.0778 87.4995C67.78 87.0457 67.312 86.8187 66.6738 86.8187C66.22 86.8187 65.83 86.9251 65.5038 87.1378C65.1918 87.3506 64.9507 87.6838 64.7806 88.1377C64.6246 88.5915 64.5466 89.1729 64.5466 89.882C64.5466 90.5769 64.6387 91.1442 64.8231 91.5838C65.0075 92.0093 65.2698 92.3213 65.6102 92.5198C65.9506 92.7042 66.3618 92.7964 66.844 92.7964C67.3829 92.7964 67.8084 92.69 68.1204 92.4773C68.4466 92.2646 68.6876 91.9667 68.8436 91.5838L71.7367 92.5411C71.5382 93.1509 71.1907 93.6686 70.6944 94.094C70.2122 94.5053 69.6307 94.8173 68.95 95.03C68.2835 95.2427 67.5815 95.3491 66.844 95.3491ZM73.9725 95.1364V84.5H77.1634L77.3123 86.7975C77.5818 86.0033 77.9789 85.3864 78.5036 84.9467C79.0425 84.5071 79.7233 84.2873 80.5458 84.2873C80.8153 84.2873 81.0422 84.3086 81.2265 84.3511C81.4251 84.3937 81.5811 84.4504 81.6945 84.5213L81.3329 87.4995C81.1911 87.4427 81.0067 87.4002 80.7798 87.3718C80.5671 87.3293 80.3047 87.308 79.9927 87.308C79.5673 87.308 79.1702 87.4002 78.8014 87.5846C78.4327 87.7689 78.1349 88.0455 77.908 88.4142C77.6953 88.7687 77.5889 89.2226 77.5889 89.7757V95.1364H73.9725ZM87.2891 81.1177V91.3498C87.2891 91.8604 87.4096 92.2291 87.6507 92.456C87.906 92.6687 88.2535 92.7751 88.6931 92.7751C89.0335 92.7751 89.3242 92.7397 89.5653 92.6687C89.8205 92.5837 90.0475 92.4631 90.246 92.3071L90.6289 94.5407C90.2744 94.796 89.8276 94.9946 89.2887 95.1364C88.7498 95.2782 88.1967 95.3491 87.6295 95.3491C86.8211 95.3491 86.1191 95.2357 85.5235 95.0087C84.942 94.7818 84.4882 94.4202 84.162 93.9238C83.85 93.4275 83.6869 92.768 83.6727 91.9455V82.1175L87.2891 81.1177ZM90.4587 84.5V87.074H81.8433V84.5H90.4587Z" fill="white"/>
<defs>
<linearGradient id="paint0_linear_153_257" x1="65" y1="29.5455" x2="65" y2="115.818" gradientUnits="userSpaceOnUse">
<stop stop-color="#025E00"/>
<stop offset="1" stop-color="#50D64D" stop-opacity="0.57"/>
</linearGradient>
<linearGradient id="paint1_linear_153_257" x1="65" y1="0" x2="65" y2="130" gradientUnits="userSpaceOnUse">
<stop stop-color="#3BD938"/>
<stop offset="1" stop-color="#14A011" stop-opacity="0.86"/>
</linearGradient>
<linearGradient id="paint2_linear_153_257" x1="65" y1="-115.227" x2="65" y2="144.182" gradientUnits="userSpaceOnUse">
<stop stop-color="#6ECB6D"/>
<stop offset="0.921875" stop-color="#13A210" stop-opacity="0"/>
<stop offset="0.921975" stop-color="#16A212"/>
</linearGradient>
<linearGradient id="paint3_linear_153_257" x1="65" y1="5.90909" x2="65" y2="124.091" gradientUnits="userSpaceOnUse">
<stop stop-color="white"/>
<stop offset="1" stop-color="white" stop-opacity="0"/>
</linearGradient>
</defs>
</svg>
