<svg width="63" height="64" viewBox="0 0 63 64" fill="none" xmlns="http://www.w3.org/2000/svg">
<path fill-rule="evenodd" clip-rule="evenodd" d="M5.67853 32.0001C5.67853 17.6206 17.3347 5.96442 31.7142 5.96442C46.0938 5.96442 57.75 17.6206 57.75 32.0001C57.75 46.3797 46.0938 58.0358 31.7142 58.0358C17.3347 58.0358 5.67853 46.3797 5.67853 32.0001ZM31.7142 21.5858C31.7142 20.8953 31.4399 20.2331 30.9517 19.7448C30.4634 19.2566 29.8012 18.9823 29.1107 18.9823C28.4202 18.9823 27.7579 19.2566 27.2697 19.7448C26.7814 20.2331 26.5071 20.8953 26.5071 21.5858V34.6037C26.5071 35.2942 26.7814 35.9564 27.2697 36.4447C27.7579 36.933 28.4202 37.2073 29.1107 37.2073H42.1285C42.819 37.2073 43.4813 36.933 43.9695 36.4447C44.4578 35.9564 44.7321 35.2942 44.7321 34.6037C44.7321 33.9132 44.4578 33.251 43.9695 32.7627C43.4813 32.2744 42.819 32.0001 42.1285 32.0001H31.7142V21.5858Z" fill="white"/>
</svg>
