<svg width="41" height="41" viewBox="0 0 41 41" fill="none" xmlns="http://www.w3.org/2000/svg">
<path fill-rule="evenodd" clip-rule="evenodd" d="M3.37415 20.5C3.37415 11.1823 10.9272 3.62921 20.245 3.62921C29.5627 3.62921 37.1158 11.1823 37.1158 20.5C37.1158 29.8178 29.5627 37.3709 20.245 37.3709C10.9272 37.3709 3.37415 29.8178 3.37415 20.5ZM20.245 13.7517C20.245 13.3043 20.0672 12.8752 19.7508 12.5588C19.4345 12.2424 19.0053 12.0646 18.5579 12.0646C18.1105 12.0646 17.6813 12.2424 17.365 12.5588C17.0486 12.8752 16.8708 13.3043 16.8708 13.7517V22.1871C16.8708 22.6346 17.0486 23.0637 17.365 23.3801C17.6813 23.6965 18.1105 23.8742 18.5579 23.8742H26.9933C27.4408 23.8742 27.8699 23.6965 28.1863 23.3801C28.5027 23.0637 28.6804 22.6346 28.6804 22.1871C28.6804 21.7397 28.5027 21.3106 28.1863 20.9942C27.8699 20.6778 27.4408 20.5 26.9933 20.5H20.245V13.7517Z" fill="#8C2828"/>
</svg>
