<svg width="50" height="50" viewBox="0 0 50 50" fill="none" xmlns="http://www.w3.org/2000/svg">
<circle cx="25" cy="25" r="25" fill="#8C2828" fill-opacity="0.1"/>
<path fill-rule="evenodd" clip-rule="evenodd" d="M15 24.3026C15 23.3918 15.3618 22.5183 16.0059 21.8743C16.6499 21.2302 17.5234 20.8684 18.4342 20.8684H32.1711C33.0819 20.8684 33.9554 21.2302 34.5994 21.8743C35.2434 22.5183 35.6053 23.3918 35.6053 24.3026V32.3158C35.6053 33.2266 35.2434 34.1001 34.5994 34.7441C33.9554 35.3882 33.0819 35.75 32.1711 35.75H18.4342C17.5234 35.75 16.6499 35.3882 16.0059 34.7441C15.3618 34.1001 15 33.2266 15 32.3158V24.3026ZM26.4474 26.5921C26.4474 26.2885 26.3268 25.9973 26.1121 25.7826C25.8974 25.568 25.6062 25.4474 25.3026 25.4474C24.999 25.4474 24.7079 25.568 24.4932 25.7826C24.2785 25.9973 24.1579 26.2885 24.1579 26.5921V30.0263C24.1579 30.3299 24.2785 30.6211 24.4932 30.8358C24.7079 31.0504 24.999 31.171 25.3026 31.171C25.6062 31.171 25.8974 31.0504 26.1121 30.8358C26.3268 30.6211 26.4474 30.3299 26.4474 30.0263V26.5921Z" fill="#8C2828"/>
<path d="M20.7237 22.0132V18.5789C20.7237 17.3645 21.2061 16.1999 22.0648 15.3411C22.9235 14.4824 24.0882 14 25.3026 14C26.517 14 27.6817 14.4824 28.5404 15.3411C29.3991 16.1999 29.8816 17.3645 29.8816 18.5789V22.0132" stroke="#8C2828" stroke-width="2" stroke-linecap="round" stroke-linejoin="round"/>
</svg>
