<svg width="130" height="130" viewBox="0 0 130 130" fill="none" xmlns="http://www.w3.org/2000/svg">
<circle cx="65" cy="65" r="58.5" fill="url(#paint0_linear_153_264)" stroke="url(#paint1_linear_153_264)" stroke-width="13"/>
<circle cx="65.0002" cy="65" r="58.5" fill="url(#paint2_linear_153_264)" stroke="url(#paint3_linear_153_264)" stroke-width="1.18182"/>
<path d="M79.4693 36.7191C79.4684 36.6078 79.437 36.4989 79.3785 36.4042C79.3199 36.3095 79.2366 36.2327 79.1374 36.182C79.0383 36.1314 78.9272 36.1089 78.8162 36.1171C78.7052 36.1252 78.5985 36.1636 78.5078 36.2281L76.1194 37.9403L75.9313 38.0757C73.3577 35.5073 69.8253 33.9012 65.9112 33.9012C58.0617 33.9012 51.676 40.2877 51.676 48.1368C51.676 55.9859 58.0621 62.3724 65.9112 62.3724C68.242 62.3728 70.5373 61.8008 72.5953 60.7066C74.6533 59.6123 76.4111 58.0294 77.7142 56.0968C77.7668 56.0194 77.8035 55.9323 77.8224 55.8406C77.8413 55.749 77.8419 55.6545 77.8241 55.5626C77.8064 55.4706 77.7707 55.3831 77.7191 55.3051C77.6675 55.227 77.6009 55.1599 77.5233 55.1075L73.962 52.636C73.7945 52.5239 73.5894 52.4827 73.3916 52.5212C73.1938 52.5598 73.0193 52.675 72.906 52.8417C71.3317 55.169 68.7231 56.5585 65.9244 56.5585C61.2802 56.5585 57.5015 52.7806 57.5015 48.1376C57.5015 43.4946 61.2802 39.7167 65.9244 39.7167C67.8845 39.7167 69.6822 40.3982 71.1135 41.5249L70.7113 41.8142L68.3213 43.5259C68.2312 43.5913 68.1607 43.6801 68.1176 43.7828C68.0745 43.8854 68.0604 43.9979 68.0769 44.108C68.0933 44.2181 68.1397 44.3216 68.2109 44.4071C68.2822 44.4927 68.3755 44.557 68.4808 44.5932L78.7055 48.0765C78.8907 48.1412 79.0936 48.1099 79.2552 47.995C79.4155 47.8784 79.5079 47.6948 79.5071 47.5003L79.4693 36.7191Z" fill="white"/>
<path d="M43.8448 81.0964C45.5183 81.0964 46.8159 81.4935 47.7377 82.2877C48.6737 83.0677 49.1417 84.11 49.1417 85.4147C49.1417 86.8471 48.6808 87.9391 47.759 88.6907C46.8372 89.4424 45.5395 89.8182 43.8661 89.8182L43.5257 90.0097H40.739V95.1364H37.1439V81.0964H43.8448ZM43.3343 87.4144C44.0434 87.4144 44.5752 87.2726 44.9297 86.9889C45.2843 86.7053 45.4615 86.2515 45.4615 85.6275C45.4615 85.0177 45.2843 84.5709 44.9297 84.2873C44.5752 84.0037 44.0434 83.8618 43.3343 83.8618H40.739V87.4144H43.3343ZM45.4828 88.1802L49.9714 95.1364H45.9295L42.3345 88.9886L45.4828 88.1802ZM56.6003 95.3491C55.4232 95.3491 54.4021 95.1293 53.537 94.6897C52.6861 94.25 52.0267 93.6189 51.5587 92.7964C51.0907 91.9738 50.8567 90.9811 50.8567 89.8182C50.8567 88.6553 51.0907 87.6626 51.5587 86.84C52.0267 86.0175 52.679 85.3864 53.5158 84.9467C54.3667 84.5071 55.3381 84.2873 56.4301 84.2873C57.5505 84.2873 58.5007 84.5071 59.2807 84.9467C60.0749 85.3722 60.6776 85.9678 61.0889 86.7337C61.5001 87.4853 61.7058 88.3504 61.7058 89.3289C61.7058 89.5842 61.6987 89.8395 61.6845 90.0947C61.6703 90.35 61.649 90.5627 61.6207 90.7329H53.1967V88.7971H60.0252L58.3021 89.4566C58.3021 88.6057 58.1461 87.9533 57.8341 87.4995C57.5363 87.0457 57.0683 86.8187 56.4301 86.8187C55.9763 86.8187 55.5863 86.9251 55.2601 87.1378C54.9481 87.3506 54.707 87.6838 54.5369 88.1377C54.3809 88.5915 54.3029 89.1729 54.3029 89.882C54.3029 90.5769 54.395 91.1442 54.5794 91.5838C54.7638 92.0093 55.0261 92.3213 55.3665 92.5198C55.7069 92.7042 56.1181 92.7964 56.6003 92.7964C57.1392 92.7964 57.5647 92.69 57.8767 92.4773C58.2029 92.2646 58.444 91.9667 58.6 91.5838L61.493 92.5411C61.2945 93.1509 60.947 93.6686 60.4507 94.094C59.9685 94.5053 59.387 94.8173 58.7063 95.03C58.0398 95.2427 57.3378 95.3491 56.6003 95.3491ZM68.1961 95.3491C67.1325 95.3491 66.1397 95.1789 65.2179 94.8386C64.3103 94.484 63.5587 93.9806 62.963 93.3282L64.6648 91.3286C65.0194 91.7824 65.4874 92.1653 66.0688 92.4773C66.6645 92.7751 67.3239 92.924 68.0472 92.924C68.4868 92.924 68.8485 92.8602 69.1321 92.7326C69.4157 92.6049 69.5576 92.4064 69.5576 92.1369C69.5576 91.9384 69.4867 91.7824 69.3448 91.6689C69.203 91.5413 68.9194 91.4349 68.4939 91.3498L67.0048 91.052C65.6717 90.7826 64.7216 90.3855 64.1543 89.8607C63.6012 89.3218 63.3247 88.6198 63.3247 87.7547C63.3247 87.1733 63.5019 86.6202 63.8565 86.0955C64.211 85.5566 64.757 85.124 65.4945 84.7978C66.2319 84.4575 67.175 84.2873 68.3237 84.2873C69.4016 84.2873 70.3517 84.4433 71.1743 84.7553C71.9968 85.0673 72.6492 85.5211 73.1314 86.1167L71.4083 88.0738C71.0679 87.6484 70.6283 87.3151 70.0894 87.074C69.5505 86.8329 69.0116 86.7124 68.4727 86.7124C68.1323 86.7124 67.8416 86.7478 67.6005 86.8187C67.3736 86.8755 67.2034 86.9606 67.0899 87.074C66.9765 87.1875 66.9197 87.3293 66.9197 87.4995C66.9197 87.6838 67.0048 87.8469 67.175 87.9887C67.3594 88.1164 67.6927 88.2298 68.1748 88.3291L70.1107 88.712C71.2027 88.9106 71.9897 89.2722 72.4719 89.7969C72.9541 90.3217 73.1952 90.9527 73.1952 91.6902C73.1952 92.3851 73.0108 93.0091 72.6421 93.5622C72.2734 94.1153 71.7203 94.5549 70.9828 94.8811C70.2454 95.1931 69.3165 95.3491 68.1961 95.3491ZM80.1997 95.3491C79.0227 95.3491 78.0016 95.1293 77.1365 94.6897C76.2856 94.25 75.6261 93.6189 75.1581 92.7964C74.6901 91.9738 74.4561 90.9811 74.4561 89.8182C74.4561 88.6553 74.6901 87.6626 75.1581 86.84C75.6261 86.0175 76.2785 85.3864 77.1152 84.9467C77.9661 84.5071 78.9376 84.2873 80.0296 84.2873C81.1499 84.2873 82.1001 84.5071 82.8801 84.9467C83.6743 85.3722 84.277 85.9678 84.6883 86.7337C85.0996 87.4853 85.3052 88.3504 85.3052 89.3289C85.3052 89.5842 85.2981 89.8395 85.2839 90.0947C85.2697 90.35 85.2485 90.5627 85.2201 90.7329H76.7961V88.7971H83.6247L81.9016 89.4566C81.9016 88.6057 81.7456 87.9533 81.4336 87.4995C81.1357 87.0457 80.6677 86.8187 80.0296 86.8187C79.5757 86.8187 79.1857 86.9251 78.8596 87.1378C78.5476 87.3506 78.3065 87.6838 78.1363 88.1377C77.9803 88.5915 77.9023 89.1729 77.9023 89.882C77.9023 90.5769 77.9945 91.1442 78.1788 91.5838C78.3632 92.0093 78.6256 92.3213 78.9659 92.5198C79.3063 92.7042 79.7176 92.7964 80.1997 92.7964C80.7387 92.7964 81.1641 92.69 81.4761 92.4773C81.8023 92.2646 82.0434 91.9667 82.1994 91.5838L85.0925 92.5411C84.8939 93.1509 84.5465 93.6686 84.0501 94.094C83.5679 94.5053 82.9865 94.8173 82.3057 95.03C81.6392 95.2427 80.9372 95.3491 80.1997 95.3491ZM91.6496 81.1177V91.3498C91.6496 91.8604 91.7702 92.2291 92.0113 92.456C92.2665 92.6687 92.614 92.7751 93.0536 92.7751C93.394 92.7751 93.6847 92.7397 93.9258 92.6687C94.1811 92.5837 94.408 92.4631 94.6065 92.3071L94.9894 94.5407C94.6349 94.796 94.1882 94.9946 93.6493 95.1364C93.1104 95.2782 92.5573 95.3491 91.99 95.3491C91.1816 95.3491 90.4796 95.2357 89.884 95.0087C89.3025 94.7818 88.8487 94.4202 88.5225 93.9238C88.2105 93.4275 88.0474 92.768 88.0333 91.9455V82.1175L91.6496 81.1177ZM94.8193 84.5V87.074H86.2038V84.5H94.8193Z" fill="white"/>
<defs>
<linearGradient id="paint0_linear_153_264" x1="62.6364" y1="49.6364" x2="62.6364" y2="133.545" gradientUnits="userSpaceOnUse">
<stop stop-color="#530500"/>
<stop offset="1" stop-color="#C72218" stop-opacity="0"/>
</linearGradient>
<linearGradient id="paint1_linear_153_264" x1="65" y1="0" x2="65" y2="130" gradientUnits="userSpaceOnUse">
<stop stop-color="#EF655E"/>
<stop offset="1" stop-color="#96150D"/>
</linearGradient>
<linearGradient id="paint2_linear_153_264" x1="65.0002" y1="-79.1818" x2="65.0002" y2="144.182" gradientUnits="userSpaceOnUse">
<stop stop-color="#671612"/>
<stop offset="1" stop-color="#FF6359" stop-opacity="0.77"/>
</linearGradient>
<linearGradient id="paint3_linear_153_264" x1="65.0002" y1="5.90909" x2="65.0002" y2="124.091" gradientUnits="userSpaceOnUse">
<stop stop-color="white"/>
<stop offset="1" stop-color="white" stop-opacity="0"/>
</linearGradient>
</defs>
</svg>
