<svg width="130" height="130" viewBox="0 0 130 130" fill="none" xmlns="http://www.w3.org/2000/svg">
<circle cx="65" cy="65" r="58.5" fill="url(#paint0_linear_153_249)" stroke="url(#paint1_linear_153_249)" stroke-width="13"/>
<circle cx="65" cy="65" r="56.5009" fill="url(#paint2_linear_153_249)" stroke="url(#paint3_linear_153_249)" stroke-width="5.18"/>
<circle cx="65" cy="65" r="58.5909" stroke="url(#paint4_linear_153_249)"/>
<path d="M47.507 36.8382C48.8117 36.8382 49.9605 37.0438 50.9532 37.4551C51.9601 37.8522 52.8323 38.4407 53.5697 39.2207L51.8041 41.582C51.1943 40.9438 50.5348 40.4687 49.8257 40.1567C49.1308 39.8305 48.3366 39.6675 47.4432 39.6675C46.9185 39.6675 46.493 39.7242 46.1668 39.8376C45.8406 39.9511 45.6066 40.1071 45.4648 40.3056C45.323 40.5042 45.2521 40.7311 45.2521 40.9864C45.2521 41.2842 45.3868 41.5395 45.6563 41.7522C45.9399 41.9507 46.3937 42.1209 47.0177 42.2627L49.379 42.7945C50.783 43.1207 51.8112 43.5958 52.4636 44.2198C53.1159 44.8438 53.4421 45.6735 53.4421 46.7087C53.4421 47.7015 53.1868 48.5453 52.6763 49.2402C52.1657 49.9209 51.4637 50.4385 50.5703 50.7931C49.6768 51.1335 48.6557 51.3036 47.507 51.3036C46.571 51.3036 45.6776 51.2044 44.8266 51.0058C43.9757 50.7931 43.2099 50.4953 42.5292 50.1124C41.8485 49.7295 41.2741 49.2898 40.8061 48.7935L42.5717 46.3471C42.9263 46.7584 43.3588 47.1271 43.8694 47.4533C44.3941 47.7653 44.9614 48.0135 45.5712 48.1978C46.1952 48.3822 46.8263 48.4744 47.4645 48.4744C47.9608 48.4744 48.3721 48.4247 48.6983 48.3255C49.0386 48.2262 49.2868 48.0773 49.4428 47.8787C49.5988 47.6802 49.6768 47.4462 49.6768 47.1767C49.6768 46.8789 49.5705 46.6307 49.3577 46.4322C49.145 46.2195 48.7408 46.0422 48.1452 45.9004L45.5499 45.326C44.7557 45.1416 44.0466 44.9005 43.4226 44.6027C42.8128 44.2907 42.3306 43.8795 41.9761 43.3689C41.6216 42.8442 41.4443 42.1918 41.4443 41.4118C41.4443 40.5325 41.6854 39.7525 42.1676 39.0718C42.6497 38.3769 43.3446 37.8309 44.2523 37.4338C45.1599 37.0367 46.2448 36.8382 47.507 36.8382ZM59.9203 37.0722V47.3044C59.9203 47.8149 60.0409 48.1836 60.2819 48.4105C60.5372 48.6233 60.8847 48.7296 61.3243 48.7296C61.6647 48.7296 61.9554 48.6942 62.1965 48.6233C62.4518 48.5382 62.6787 48.4176 62.8772 48.2616L63.2601 50.4953C62.9056 50.7505 62.4589 50.9491 61.9199 51.0909C61.381 51.2327 60.8279 51.3036 60.2607 51.3036C59.4523 51.3036 58.7503 51.1902 58.1547 50.9633C57.5732 50.7364 57.1194 50.3747 56.7932 49.8784C56.4812 49.382 56.3181 48.7225 56.3039 47.9V38.072L59.9203 37.0722ZM63.0899 40.4545V43.0285H54.4745V40.4545H63.0899ZM69.8233 40.2418C70.9436 40.2418 71.9222 40.4616 72.7589 40.9013C73.6098 41.3267 74.2693 41.9578 74.7373 42.7945C75.2194 43.6171 75.4605 44.6098 75.4605 45.7727C75.4605 46.9356 75.2194 47.9355 74.7373 48.7722C74.2693 49.5947 73.6098 50.2258 72.7589 50.6655C71.9222 51.0909 70.9436 51.3036 69.8233 51.3036C68.7313 51.3036 67.7598 51.0909 66.9089 50.6655C66.058 50.2258 65.3914 49.5947 64.9093 48.7722C64.4413 47.9355 64.2073 46.9356 64.2073 45.7727C64.2073 44.6098 64.4413 43.6171 64.9093 42.7945C65.3914 41.9578 66.058 41.3267 66.9089 40.9013C67.7598 40.4616 68.7313 40.2418 69.8233 40.2418ZM69.8233 42.8158C69.412 42.8158 69.0574 42.9151 68.7596 43.1136C68.4618 43.3122 68.2349 43.6313 68.0789 44.0709C67.9229 44.5105 67.8449 45.0778 67.8449 45.7727C67.8449 46.4676 67.9229 47.0349 68.0789 47.4745C68.2349 47.9 68.4618 48.2191 68.7596 48.4318C69.0574 48.6304 69.412 48.7296 69.8233 48.7296C70.2487 48.7296 70.6103 48.6304 70.9082 48.4318C71.206 48.2191 71.4329 47.9 71.5889 47.4745C71.7449 47.0349 71.8229 46.4676 71.8229 45.7727C71.8229 45.0778 71.7449 44.5105 71.5889 44.0709C71.4329 43.6313 71.206 43.3122 70.9082 43.1136C70.6103 42.9151 70.2487 42.8158 69.8233 42.8158ZM77.4949 55.5582V40.4545H80.7496L80.9411 44.3049L80.5156 43.8582C80.6149 43.1491 80.8347 42.5251 81.1751 41.9862C81.5154 41.4473 81.9551 41.0218 82.494 40.7098C83.0329 40.3978 83.6498 40.2418 84.3447 40.2418C85.224 40.2418 85.9898 40.4616 86.6422 40.9013C87.2945 41.3267 87.798 41.9507 88.1525 42.7733C88.5213 43.5816 88.7056 44.5673 88.7056 45.7302C88.7056 46.8931 88.5213 47.8929 88.1525 48.7296C87.7838 49.5664 87.2662 50.2045 86.5996 50.6442C85.9473 51.0838 85.1814 51.3036 84.3022 51.3036C83.3378 51.3036 82.5578 51.02 81.9622 50.4527C81.3665 49.8713 80.9694 49.1409 80.7709 48.2616L81.1113 47.7511V55.5582H77.4949ZM83.0684 48.6445C83.6924 48.6445 84.1816 48.4176 84.5362 47.9638C84.8907 47.4958 85.068 46.7655 85.068 45.7727C85.068 44.78 84.8907 44.0567 84.5362 43.6029C84.1958 43.1349 83.7136 42.9009 83.0896 42.9009C82.6925 42.9009 82.3451 43.0144 82.0473 43.2413C81.7494 43.454 81.5154 43.7731 81.3453 44.1985C81.1893 44.624 81.1113 45.1487 81.1113 45.7727C81.1113 46.3684 81.1822 46.886 81.324 47.3256C81.48 47.7511 81.7069 48.0773 82.0047 48.3042C82.3025 48.5311 82.6571 48.6445 83.0684 48.6445ZM36.7279 58.0509V60.8802H32.1542V72.0909H28.4953V60.8802H23.9004V58.0509H36.7279ZM40.8297 72.3036C40.1064 72.3036 39.4682 72.1831 38.9152 71.942C38.3762 71.6867 37.9508 71.2825 37.6388 70.7295C37.3268 70.1764 37.1708 69.4531 37.1708 68.5596V61.4545H40.7872V67.7087C40.7872 68.3895 40.9219 68.8645 41.1913 69.134C41.4608 69.4035 41.8437 69.5382 42.3401 69.5382C42.5953 69.5382 42.8364 69.4956 43.0633 69.4105C43.2902 69.3113 43.4888 69.1695 43.659 68.9851C43.8292 68.7865 43.9568 68.5384 44.0419 68.2405C44.1412 67.9285 44.1908 67.5669 44.1908 67.1556V61.4545H47.8072V72.0909H44.5737L44.4673 70.0913C44.127 70.8429 43.6519 71.4031 43.0421 71.7718C42.4322 72.1264 41.6948 72.3036 40.8297 72.3036ZM50.4054 72.0909V61.4545H53.5963L53.7452 63.752C54.0147 62.9578 54.4118 62.3409 54.9365 61.9013C55.4754 61.4616 56.1561 61.2418 56.9787 61.2418C57.2481 61.2418 57.475 61.2631 57.6594 61.3056C57.858 61.3482 58.014 61.4049 58.1274 61.4758L57.7658 64.454C57.624 64.3973 57.4396 64.3547 57.2127 64.3264C57 64.2838 56.7376 64.2625 56.4256 64.2625C56.0001 64.2625 55.603 64.3547 55.2343 64.5391C54.8656 64.7235 54.5678 65 54.3409 65.3687C54.1281 65.7233 54.0218 66.1771 54.0218 66.7302V72.0909H50.4054ZM59.546 72.0909V61.4545H62.7795L62.9709 65.1135L62.5668 64.7093C62.7086 63.9435 62.9568 63.3053 63.3113 62.7947C63.68 62.2842 64.1339 61.9013 64.6728 61.646C65.2259 61.3765 65.8428 61.2418 66.5235 61.2418C67.2609 61.2418 67.8991 61.3836 68.438 61.6673C68.9911 61.9509 69.4237 62.3693 69.7357 62.9224C70.0477 63.4755 70.2037 64.1704 70.2037 65.0071V72.0909H66.5873V65.9644C66.5873 65.2269 66.4455 64.7164 66.1619 64.4327C65.8782 64.1491 65.5166 64.0073 65.0769 64.0073C64.7366 64.0073 64.4175 64.0924 64.1197 64.2625C63.8219 64.4185 63.5879 64.6738 63.4177 65.0284C63.2475 65.3829 63.1624 65.858 63.1624 66.4536V72.0909H59.546ZM77.8005 61.2418C78.9209 61.2418 79.8994 61.4616 80.7362 61.9013C81.5871 62.3267 82.2465 62.9578 82.7145 63.7945C83.1967 64.6171 83.4378 65.6098 83.4378 66.7727C83.4378 67.9356 83.1967 68.9355 82.7145 69.7722C82.2465 70.5947 81.5871 71.2258 80.7362 71.6655C79.8994 72.0909 78.9209 72.3036 77.8005 72.3036C76.7085 72.3036 75.7371 72.0909 74.8862 71.6655C74.0353 71.2258 73.3687 70.5947 72.8865 69.7722C72.4185 68.9355 72.1845 67.9356 72.1845 66.7727C72.1845 65.6098 72.4185 64.6171 72.8865 63.7945C73.3687 62.9578 74.0353 62.3267 74.8862 61.9013C75.7371 61.4616 76.7085 61.2418 77.8005 61.2418ZM77.8005 63.8158C77.3893 63.8158 77.0347 63.9151 76.7369 64.1136C76.4391 64.3122 76.2122 64.6313 76.0562 65.0709C75.9002 65.5105 75.8222 66.0778 75.8222 66.7727C75.8222 67.4676 75.9002 68.0349 76.0562 68.4745C76.2122 68.9 76.4391 69.2191 76.7369 69.4318C77.0347 69.6304 77.3893 69.7296 77.8005 69.7296C78.226 69.7296 78.5876 69.6304 78.8854 69.4318C79.1833 69.2191 79.4102 68.9 79.5662 68.4745C79.7222 68.0349 79.8002 67.4676 79.8002 66.7727C79.8002 66.0778 79.7222 65.5105 79.5662 65.0709C79.4102 64.6313 79.1833 64.3122 78.8854 64.1136C78.5876 63.9151 78.226 63.8158 77.8005 63.8158ZM89.0673 72.3036C88.344 72.3036 87.7058 72.1831 87.1527 71.942C86.6138 71.6867 86.1884 71.2825 85.8764 70.7295C85.5644 70.1764 85.4084 69.4531 85.4084 68.5596V61.4545H89.0247V67.7087C89.0247 68.3895 89.1594 68.8645 89.4289 69.134C89.6984 69.4035 90.0813 69.5382 90.5776 69.5382C90.8329 69.5382 91.074 69.4956 91.3009 69.4105C91.5278 69.3113 91.7264 69.1695 91.8965 68.9851C92.0667 68.7865 92.1944 68.5384 92.2794 68.2405C92.3787 67.9285 92.4284 67.5669 92.4284 67.1556V61.4545H96.0447V72.0909H92.8113L92.7049 70.0913C92.3645 70.8429 91.8894 71.4031 91.2796 71.7718C90.6698 72.1264 89.9324 72.3036 89.0673 72.3036ZM103.089 58.0722V68.3044C103.089 68.8149 103.21 69.1836 103.451 69.4105C103.706 69.6233 104.053 69.7296 104.493 69.7296C104.833 69.7296 105.124 69.6942 105.365 69.6233C105.62 69.5382 105.847 69.4176 106.046 69.2616L106.429 71.4953C106.074 71.7505 105.628 71.9491 105.089 72.0909C104.55 72.2327 103.997 72.3036 103.429 72.3036C102.621 72.3036 101.919 72.1902 101.323 71.9633C100.742 71.7364 100.288 71.3747 99.9619 70.8784C99.6499 70.382 99.4868 69.7225 99.4726 68.9V59.072L103.089 58.0722ZM106.259 61.4545V64.0285H97.6432V61.4545H106.259ZM47.7174 80.0509V82.8802H43.1438V94.0909H39.4849V82.8802H34.89V80.0509H47.7174ZM51.071 82.2207C50.3336 82.2207 49.7947 82.086 49.4543 81.8165C49.1281 81.5329 48.965 81.0933 48.965 80.4976C48.965 79.8878 49.1281 79.4482 49.4543 79.1787C49.7947 78.8951 50.3336 78.7533 51.071 78.7533C51.7943 78.7533 52.3261 78.8951 52.6665 79.1787C53.0068 79.4482 53.177 79.8878 53.177 80.4976C53.177 81.0933 53.0068 81.5329 52.6665 81.8165C52.3261 82.086 51.7943 82.2207 51.071 82.2207ZM52.8792 83.4545V94.0909H49.2628V83.4545H52.8792ZM55.4535 94.0909V83.4545H58.687L58.7933 85.518C59.1337 84.7664 59.6088 84.1991 60.2186 83.8162C60.8426 83.4333 61.5588 83.2418 62.3672 83.2418C63.1613 83.2418 63.8492 83.4191 64.4306 83.7736C65.0121 84.1282 65.4446 84.6529 65.7283 85.3478C65.9552 84.8798 66.2459 84.4898 66.6004 84.1778C66.9692 83.8658 67.3875 83.6318 67.8555 83.4758C68.3235 83.3198 68.8057 83.2418 69.3021 83.2418C70.0112 83.2418 70.6352 83.3836 71.1741 83.6673C71.713 83.9367 72.1384 84.3551 72.4504 84.9224C72.7766 85.4755 72.9397 86.1704 72.9397 87.0071V94.0909H69.3234V87.8367C69.3234 87.156 69.1886 86.6809 68.9192 86.4115C68.6639 86.142 68.3164 86.0073 67.8768 86.0073C67.5223 86.0073 67.1961 86.0995 66.8983 86.2838C66.6146 86.454 66.3948 86.7164 66.2388 87.0709C66.0828 87.4255 66.0048 87.8722 66.0048 88.4111V94.0909H62.3884V87.8367C62.3884 87.156 62.2537 86.6809 61.9843 86.4115C61.7148 86.142 61.3673 86.0073 60.9419 86.0073C60.6157 86.0073 60.3037 86.0924 60.0059 86.2625C59.7223 86.4327 59.4953 86.7022 59.3252 87.0709C59.155 87.4255 59.0699 87.8935 59.0699 88.4749V94.0909H55.4535ZM80.6704 94.3036C79.4933 94.3036 78.4722 94.0838 77.6071 93.6442C76.7562 93.2045 76.0967 92.5735 75.6287 91.7509C75.1607 90.9284 74.9267 89.9356 74.9267 88.7727C74.9267 87.6098 75.1607 86.6171 75.6287 85.7945C76.0967 84.972 76.7491 84.3409 77.5858 83.9013C78.4367 83.4616 79.4082 83.2418 80.5002 83.2418C81.6205 83.2418 82.5707 83.4616 83.3507 83.9013C84.1449 84.3267 84.7476 84.9224 85.1589 85.6882C85.5702 86.4398 85.7758 87.3049 85.7758 88.2835C85.7758 88.5387 85.7687 88.794 85.7545 89.0493C85.7404 89.3045 85.7191 89.5173 85.6907 89.6875H77.2667V87.7516H84.0953L82.3722 88.4111C82.3722 87.5602 82.2162 86.9078 81.9042 86.454C81.6064 86.0002 81.1384 85.7733 80.5002 85.7733C80.0464 85.7733 79.6564 85.8796 79.3302 86.0924C79.0182 86.3051 78.7771 86.6384 78.6069 87.0922C78.4509 87.546 78.3729 88.1275 78.3729 88.8365C78.3729 89.5315 78.4651 90.0987 78.6494 90.5384C78.8338 90.9638 79.0962 91.2758 79.4365 91.4744C79.7769 91.6587 80.1882 91.7509 80.6704 91.7509C81.2093 91.7509 81.6347 91.6445 81.9467 91.4318C82.2729 91.2191 82.514 90.9213 82.67 90.5384L85.5631 91.4956C85.3645 92.1055 85.0171 92.6231 84.5207 93.0485C84.0385 93.4598 83.4571 93.7718 82.7764 93.9845C82.1098 94.1973 81.4078 94.3036 80.6704 94.3036ZM87.7989 94.0909V83.4545H90.9898L91.1387 85.752C91.4082 84.9578 91.8052 84.3409 92.33 83.9013C92.8689 83.4616 93.5496 83.2418 94.3722 83.2418C94.6416 83.2418 94.8685 83.2631 95.0529 83.3056C95.2514 83.3482 95.4074 83.4049 95.5209 83.4758L95.1592 86.454C95.0174 86.3973 94.8331 86.3547 94.6062 86.3264C94.3934 86.2838 94.1311 86.2625 93.8191 86.2625C93.3936 86.2625 92.9965 86.3547 92.6278 86.5391C92.2591 86.7235 91.9612 87 91.7343 87.3687C91.5216 87.7233 91.4152 88.1771 91.4152 88.7302V94.0909H87.7989Z" fill="white"/>
<defs>
<linearGradient id="paint0_linear_153_249" x1="65" y1="29.5455" x2="65" y2="115.818" gradientUnits="userSpaceOnUse">
<stop stop-color="#2D5083"/>
<stop offset="1" stop-color="#37609E"/>
</linearGradient>
<linearGradient id="paint1_linear_153_249" x1="65" y1="0" x2="65" y2="130" gradientUnits="userSpaceOnUse">
<stop stop-color="#275CBA"/>
<stop offset="1" stop-color="#1A51B0"/>
</linearGradient>
<linearGradient id="paint2_linear_153_249" x1="65" y1="-115.227" x2="65" y2="144.182" gradientUnits="userSpaceOnUse">
<stop stop-color="#00040A"/>
<stop offset="0.920653" stop-color="#4374BE"/>
<stop offset="0.9625" stop-color="#738AA6" stop-opacity="0"/>
</linearGradient>
<linearGradient id="paint3_linear_153_249" x1="65" y1="5.90906" x2="65" y2="124.091" gradientUnits="userSpaceOnUse">
<stop stop-color="#265BBA"/>
<stop offset="1" stop-color="#2056B4"/>
</linearGradient>
<linearGradient id="paint4_linear_153_249" x1="65" y1="5.90906" x2="65" y2="124.091" gradientUnits="userSpaceOnUse">
<stop stop-color="#6093ED"/>
<stop offset="1" stop-color="#2056B4"/>
</linearGradient>
</defs>
</svg>
